<?xml version="1.0" encoding="UTF-8"?>
<svg width="1980px" height="181px" viewBox="0 0 1980 181" version="1.1" xmlns="http://www.w3.org/2000/svg" xmlns:xlink="http://www.w3.org/1999/xlink">
    <!-- Generator: Sketch 50.2 (55047) - http://www.bohemiancoding.com/sketch -->
    <title>Group</title>
    <desc>Created with Sketch.</desc>
    <defs>
        <linearGradient x1="100%" y1="50%" x2="37.6684395%" y2="50%" id="linearGradient-1">
            <stop stop-color="#F3F3F3" offset="0%"/>
            <stop stop-color="#E57247" offset="100%"/>
        </linearGradient>
        <rect id="path-2" x="0" y="0" width="1980" height="181"/>
    </defs>
    <g id="Welcome" stroke="none" stroke-width="1" fill="none" fill-rule="evenodd">
        <g id="Desktop" transform="translate(-226.000000, -403.000000)">
            <g id="Group" transform="translate(226.000000, 403.000000)">
                <g id="Rectangle">
                    <use fill="#E57247" xlink:href="#path-2"/>
                    <use fill="url(#linearGradient-1)" xlink:href="#path-2"/>
                </g>
                <g id="三角形" opacity="0.3">
                    <polygon id="Triangle" fill="#00684C" points="450 61 480 121 420 121"/>
                    <polygon id="Triangle" fill="#69498C" points="510 61 540 121 480 121"/>
                    <polygon id="Triangle" fill="#DC3E5E" points="390 61 420 121 360 121"/>
                    <polygon id="Triangle" fill="#DC3E5E" points="60 1 90 61 30 61"/>
                    <polygon id="Triangle" fill="#A45334" points="360 1 390 61 330 61"/>
                    <polygon id="Triangle" fill="#E993B5" points="420 1 450 61 390 61"/>
                    <polygon id="Triangle" fill="#DC3E5E" points="480 1 510 61 450 61"/>
                    <polygon id="Triangle" fill="#FFEF96" points="540 1 570 61 510 61"/>
                    <polygon id="Triangle" fill="#2C3962" points="600 1 630 61 570 61"/>
                    <polygon id="Triangle" fill="#71C9E6" points="660 1 690 61 630 61"/>
                    <polygon id="Triangle" fill="#71C9E6" points="300 1 330 61 270 61"/>
                    <polygon id="Triangle" fill="#E8848A" points="240 1 270 61 210 61"/>
                    <polygon id="Triangle" fill="#465C99" points="180 1 210 61 150 61"/>
                    <polygon id="Triangle" fill="#FFE656" points="120 1 150 61 90 61"/>
                    <polygon id="Triangle" fill="#9E913A" points="270 61 300 121 240 121"/>
                    <polygon id="Triangle" fill="#465C99" points="720 1 750 61 690 61"/>
                    <polygon id="Triangle" fill="#9E913A" points="780 1 810 61 750 61"/>
                    <polygon id="Triangle" fill="#8A253B" points="840 1 870 61 810 61"/>
                    <polygon id="Triangle" fill="#8A253B" points="1080 121 1110 181 1050 181"/>
                    <polygon id="Triangle" fill="#D8D8D8" points="957 0 987 60 927 60"/>
                    <polygon id="Triangle" fill="#D8D8D8" points="1016 0 1046 60 986 60"/>
                    <polygon id="Triangle" fill="#D8D8D8" points="900 0 930 60 870 60"/>
                    <polygon id="Triangle" fill="#FFEF96" points="960 1 990 61 930 61"/>
                    <polygon id="Triangle" fill="#DC3E5E" points="1020 1 1050 61 990 61"/>
                    <polygon id="Triangle" fill="#E993B5" points="900 1 930 61 870 61"/>
                    <polygon id="Triangle" fill="#465C99" points="1080 1 1110 61 1050 61"/>
                    <polygon id="Triangle" fill="#DC3E5E" points="1110 61 1140 121 1080 121"/>
                    <polygon id="Triangle" fill="#E57247" points="120 121 150 181 90 181"/>
                    <polygon id="Triangle" fill="#E993B5" points="30 61 60 121 0 121"/>
                    <polygon id="Triangle" fill="#465C99" points="90 61 120 121 60 121"/>
                    <polygon id="Triangle" fill="#9E913A" points="150 61 180 121 120 121"/>
                    <polygon id="Triangle" fill="#E993B5" points="330 61 360 121 300 121"/>
                    <polygon id="Triangle" fill="#DC3E5E" points="210 61 240 121 180 121"/>
                    <polygon id="Triangle" fill="#D8D8D8" points="695 61 725 121 665 121"/>
                    <polygon id="Triangle" fill="#D8D8D8" points="1045 61 1075 121 1015 121"/>
                    <polygon id="Triangle" fill="#71C9E6" points="750 61 780 121 720 121"/>
                    <polygon id="Triangle" fill="#7BC2A1" points="570 61 600 121 540 121"/>
                    <polygon id="Triangle" fill="#FFE656" points="630 61 660 121 600 121"/>
                    <polygon id="Triangle" fill="#9E913A" points="690 61 720 121 660 121"/>
                    <polygon id="Triangle" fill="#8E355F" points="870 61 900 121 840 121"/>
                    <polygon id="Triangle" fill="#E57247" points="930 61 960 121 900 121"/>
                    <polygon id="Triangle" fill="#937CAC" points="990 61 1020 121 960 121"/>
                    <polygon id="Triangle" fill="#00AFDE" points="1050 61 1080 121 1020 121"/>
                    <polygon id="Triangle" fill="#7D87B5" points="810 61 840 121 780 121"/>
                    <polygon id="Triangle" fill="#E57247" transform="translate(630.000000, 31.000000) scale(1, -1) translate(-630.000000, -31.000000) " points="630 1 660 61 600 61"/>
                    <polygon id="Triangle" fill="#95CA93" transform="translate(90.000000, 31.000000) scale(1, -1) translate(-90.000000, -31.000000) " points="90 1 120 61 60 61"/>
                    <polygon id="Triangle" fill="#E57247" transform="translate(150.000000, 31.000000) scale(1, -1) translate(-150.000000, -31.000000) " points="150 1 180 61 120 61"/>
                    <polygon id="Triangle" fill="#00A87B" transform="translate(210.000000, 31.000000) scale(1, -1) translate(-210.000000, -31.000000) " points="210 1 240 61 180 61"/>
                    <polygon id="Triangle" fill="#9E913A" transform="translate(390.000000, 31.000000) scale(1, -1) translate(-390.000000, -31.000000) " points="390 1 420 61 360 61"/>
                    <polygon id="Triangle" fill="#95CA93" transform="translate(450.000000, 31.000000) scale(1, -1) translate(-450.000000, -31.000000) " points="450 1 480 61 420 61"/>
                    <polygon id="Triangle" fill="#8A253B" transform="translate(510.000000, 31.000000) scale(1, -1) translate(-510.000000, -31.000000) " points="510 1 540 61 480 61"/>
                    <polygon id="Triangle" fill="#00AFDE" transform="translate(570.000000, 31.000000) scale(1, -1) translate(-570.000000, -31.000000) " points="570 1 600 61 540 61"/>
                    <polygon id="Triangle" fill="#E8848A" transform="translate(690.000000, 31.000000) scale(1, -1) translate(-690.000000, -31.000000) " points="690 1 720 61 660 61"/>
                    <polygon id="Triangle" fill="#E57247" transform="translate(330.000000, 31.000000) scale(1, -1) translate(-330.000000, -31.000000) " points="330 1 360 61 300 61"/>
                    <polygon id="Triangle" fill="#FFE656" transform="translate(270.000000, 31.000000) scale(1, -1) translate(-270.000000, -31.000000) " points="270 1 300 61 240 61"/>
                    <polygon id="Triangle" fill="#71C9E6" transform="translate(30.000000, 31.000000) scale(1, -1) translate(-30.000000, -31.000000) " points="30 1 60 61 0 61"/>
                    <polygon id="Triangle" fill="#71C9E6" transform="translate(1050.000000, 31.000000) scale(1, -1) translate(-1050.000000, -31.000000) " points="1050 1 1080 61 1020 61"/>
                    <polygon id="Triangle" fill="#E8848A" transform="translate(1110.000000, 31.000000) scale(1, -1) translate(-1110.000000, -31.000000) " points="1110 1 1140 61 1080 61"/>
                    <polygon id="Triangle" fill="#7BC2A1" transform="translate(1050.000000, 151.000000) scale(1, -1) translate(-1050.000000, -151.000000) " points="1050 121 1080 181 1020 181"/>
                    <polygon id="Triangle" fill="#FFE656" transform="translate(60.000000, 91.000000) scale(1, -1) translate(-60.000000, -91.000000) " points="60 61 90 121 30 121"/>
                    <polygon id="Triangle" fill="#E57247" points="80 121 110 181 50 181"/>
                    <polygon id="Triangle" fill="#FFEF96" points="60 121 90 181 30 181"/>
                    <polygon id="Triangle" fill="#E993B5" points="180 121 210 181 150 181"/>
                    <polygon id="Triangle" fill="#FFE656" points="360 121 390 181 330 181"/>
                    <polygon id="Triangle" fill="#A45334" points="420 121 450 181 390 181"/>
                    <polygon id="Triangle" fill="#E8848A" points="480 121 510 181 450 181"/>
                    <polygon id="Triangle" fill="#E993B5" points="540 121 570 181 510 181"/>
                    <polygon id="Triangle" fill="#E8848A" points="300 121 330 181 270 181"/>
                    <polygon id="Triangle" fill="#FFE656" points="240 121 270 181 210 181"/>
                    <polygon id="Triangle" fill="#FFE656" points="660 121 690 181 630 181"/>
                    <polygon id="Triangle" fill="#EEA37A" points="600 121 630 181 570 181"/>
                    <polygon id="Triangle" fill="#E05694" points="720 121 750 181 690 181"/>
                    <polygon id="Triangle" fill="#00A87B" points="780 121 810 181 750 181"/>
                    <polygon id="Triangle" fill="#D8D8D8" points="1015 121 1045 181 985 181"/>
                    <polygon id="Triangle" fill="#D8D8D8" points="956 121 986 181 926 181"/>
                    <polygon id="Triangle" fill="#465C99" points="840 121 870 181 810 181"/>
                    <polygon id="Triangle" fill="#465C99" points="1020 121 1050 181 990 181"/>
                    <polygon id="Triangle" fill="#FFE656" points="960 121 990 181 930 181"/>
                    <polygon id="Triangle" fill="#E05694" points="900 121 930 181 870 181"/>
                    <polygon id="Triangle" fill="#DC3E5E" transform="translate(750.000000, 31.000000) scale(1, -1) translate(-750.000000, -31.000000) " points="750 1 780 61 720 61"/>
                    <polygon id="Triangle" fill="#E993B5" transform="translate(810.000000, 31.000000) scale(1, -1) translate(-810.000000, -31.000000) " points="810 1 840 61 780 61"/>
                    <polygon id="Triangle" fill="#FFE656" transform="translate(870.000000, 31.000000) scale(1, -1) translate(-870.000000, -31.000000) " points="870 1 900 61 840 61"/>
                    <polygon id="Triangle" fill="#7BC2A1" transform="translate(930.000000, 31.000000) scale(1, -1) translate(-930.000000, -31.000000) " points="930 1 960 61 900 61"/>
                    <polygon id="Triangle" fill="#69498C" transform="translate(990.000000, 31.000000) scale(1, -1) translate(-990.000000, -31.000000) " points="990 1 1020 61 960 61"/>
                    <polygon id="Triangle" fill="#E8848A" transform="translate(120.000000, 91.000000) scale(1, -1) translate(-120.000000, -91.000000) " points="120 61 150 121 90 121"/>
                    <polygon id="Triangle" fill="#00AFDE" transform="translate(180.000000, 91.000000) scale(1, -1) translate(-180.000000, -91.000000) " points="180 61 210 121 150 121"/>
                    <polygon id="Triangle" fill="#7BC2A1" transform="translate(240.000000, 91.000000) scale(1, -1) translate(-240.000000, -91.000000) " points="240 61 270 121 210 121"/>
                    <polygon id="Triangle" fill="#E8848A" transform="translate(420.000000, 91.000000) scale(1, -1) translate(-420.000000, -91.000000) " points="420 61 450 121 390 121"/>
                    <polygon id="Triangle" fill="#FFFFFF" transform="translate(480.000000, 91.000000) scale(1, -1) translate(-480.000000, -91.000000) " points="480 61 510 121 450 121"/>
                    <polygon id="Triangle" fill="#00A87B" transform="translate(540.000000, 91.000000) scale(1, -1) translate(-540.000000, -91.000000) " points="540 61 570 121 510 121"/>
                    <polygon id="Triangle" fill="#E993B5" transform="translate(600.000000, 91.000000) scale(1, -1) translate(-600.000000, -91.000000) " points="600 61 630 121 570 121"/>
                    <polygon id="Triangle" fill="#00A87B" transform="translate(660.000000, 91.000000) scale(1, -1) translate(-660.000000, -91.000000) " points="660 61 690 121 630 121"/>
                    <polygon id="Triangle" fill="#FFEF96" transform="translate(720.000000, 91.000000) scale(1, -1) translate(-720.000000, -91.000000) " points="720 61 750 121 690 121"/>
                    <polygon id="Triangle" fill="#FFFFFF" transform="translate(360.000000, 91.000000) scale(1, -1) translate(-360.000000, -91.000000) " points="360 61 390 121 330 121"/>
                    <polygon id="Triangle" fill="#432B58" transform="translate(300.000000, 91.000000) scale(1, -1) translate(-300.000000, -91.000000) " points="300 61 330 121 270 121"/>
                    <polygon id="Triangle" fill="#FFE656" transform="translate(780.000000, 91.000000) scale(1, -1) translate(-780.000000, -91.000000) " points="780 61 810 121 750 121"/>
                    <polygon id="Triangle" fill="#FFFFFF" transform="translate(840.000000, 91.000000) scale(1, -1) translate(-840.000000, -91.000000) " points="840 61 870 121 810 121"/>
                    <polygon id="Triangle" fill="#00A87B" transform="translate(900.000000, 91.000000) scale(1, -1) translate(-900.000000, -91.000000) " points="900 61 930 121 870 121"/>
                    <polygon id="Triangle" fill="#EEA37A" transform="translate(1020.000000, 91.000000) scale(1, -1) translate(-1020.000000, -91.000000) " points="1020 61 1050 121 990 121"/>
                    <polygon id="Triangle" fill="#432B58" transform="translate(960.000000, 91.000000) scale(1, -1) translate(-960.000000, -91.000000) " points="960 61 990 121 930 121"/>
                    <polygon id="Triangle" fill="#9E913A" transform="translate(1080.000000, 91.000000) scale(1, -1) translate(-1080.000000, -91.000000) " points="1080 61 1110 121 1050 121"/>
                    <polygon id="Triangle" fill="#FFE656" transform="translate(1110.000000, 151.000000) scale(1, -1) translate(-1110.000000, -151.000000) " points="1110 121 1140 181 1080 181"/>
                    <polygon id="Triangle" fill="#71C9E6" transform="translate(330.000000, 151.000000) scale(1, -1) translate(-330.000000, -151.000000) " points="330 121 360 181 300 181"/>
                    <polygon id="Triangle" fill="#00AFDE" transform="translate(90.000000, 151.000000) scale(1, -1) translate(-90.000000, -151.000000) " points="90 121 120 181 60 181"/>
                    <polygon id="Triangle" fill="#87325A" transform="translate(150.000000, 151.000000) scale(1, -1) translate(-150.000000, -151.000000) " points="150 121 180 181 120 181"/>
                    <polygon id="Triangle" fill="#69498C" transform="translate(210.000000, 151.000000) scale(1, -1) translate(-210.000000, -151.000000) " points="210 121 240 181 180 181"/>
                    <polygon id="Triangle" fill="#465C99" transform="translate(270.000000, 151.000000) scale(1, -1) translate(-270.000000, -151.000000) " points="270 121 300 181 240 181"/>
                    <polygon id="Triangle" fill="#D8D8D8" transform="translate(810.000000, 151.000000) scale(1, -1) translate(-810.000000, -151.000000) " points="810 121 840 181 780 181"/>
                    <polygon id="Triangle" fill="#EEA37A" transform="translate(390.000000, 151.000000) scale(1, -1) translate(-390.000000, -151.000000) " points="390 121 420 181 360 181"/>
                    <polygon id="Triangle" fill="#6C1D2E" transform="translate(450.000000, 151.000000) scale(1, -1) translate(-450.000000, -151.000000) " points="450 121 480 181 420 181"/>
                    <polygon id="Triangle" fill="#E57247" transform="translate(510.000000, 151.000000) scale(1, -1) translate(-510.000000, -151.000000) " points="510 121 540 181 480 181"/>
                    <polygon id="Triangle" fill="#F5C6AC" transform="translate(690.000000, 151.000000) scale(1, -1) translate(-690.000000, -151.000000) " points="690 121 720 181 660 181"/>
                    <polygon id="Triangle" fill="#E993B5" transform="translate(750.000000, 151.000000) scale(1, -1) translate(-750.000000, -151.000000) " points="750 121 780 181 720 181"/>
                    <polygon id="Triangle" fill="#E57247" transform="translate(810.000000, 151.000000) scale(1, -1) translate(-810.000000, -151.000000) " points="810 121 840 181 780 181"/>
                    <polygon id="Triangle" fill="#432B58" transform="translate(870.000000, 151.000000) scale(1, -1) translate(-870.000000, -151.000000) " points="870 121 900 181 840 181"/>
                    <polygon id="Triangle" fill="#DC3E5E" transform="translate(930.000000, 151.000000) scale(1, -1) translate(-930.000000, -151.000000) " points="930 121 960 181 900 181"/>
                    <polygon id="Triangle" fill="#7BC2A1" transform="translate(990.000000, 151.000000) scale(1, -1) translate(-990.000000, -151.000000) " points="990 121 1020 181 960 181"/>
                    <polygon id="Triangle" fill="#367441" transform="translate(630.000000, 151.000000) scale(1, -1) translate(-630.000000, -151.000000) " points="630 121 660 181 600 181"/>
                    <polygon id="Triangle" fill="#8A253B" transform="translate(570.000000, 151.000000) scale(1, -1) translate(-570.000000, -151.000000) " points="570 121 600 181 540 181"/>
                </g>
                <g id="三角形" opacity="0.303794643" transform="translate(810.000000, 0.000000)">
                    <polygon id="Triangle" fill="#00684C" points="480 61 510 121 450 121"/>
                    <polygon id="Triangle" fill="#69498C" points="540 61 570 121 510 121"/>
                    <polygon id="Triangle" fill="#DC3E5E" points="420 61 450 121 390 121"/>
                    <polygon id="Triangle" fill="#DC3E5E" points="90 1 120 61 60 61"/>
                    <polygon id="Triangle" fill="#A45334" points="390 1 420 61 360 61"/>
                    <polygon id="Triangle" fill="#E993B5" points="450 1 480 61 420 61"/>
                    <polygon id="Triangle" fill="#DC3E5E" points="510 1 540 61 480 61"/>
                    <polygon id="Triangle" fill="#FFEF96" points="570 1 600 61 540 61"/>
                    <polygon id="Triangle" fill="#2C3962" points="630 1 660 61 600 61"/>
                    <polygon id="Triangle" fill="#71C9E6" points="690 1 720 61 660 61"/>
                    <polygon id="Triangle" fill="#71C9E6" points="330 1 360 61 300 61"/>
                    <polygon id="Triangle" fill="#E8848A" points="270 1 300 61 240 61"/>
                    <polygon id="Triangle" fill="#465C99" points="210 1 240 61 180 61"/>
                    <polygon id="Triangle" fill="#FFE656" points="150 1 180 61 120 61"/>
                    <polygon id="Triangle" fill="#9E913A" points="300 61 330 121 270 121"/>
                    <polygon id="Triangle" fill="#465C99" points="750 1 780 61 720 61"/>
                    <polygon id="Triangle" fill="#9E913A" points="810 1 840 61 780 61"/>
                    <polygon id="Triangle" fill="#8A253B" points="870 1 900 61 840 61"/>
                    <polygon id="Triangle" fill="#8A253B" points="1110 121 1140 181 1080 181"/>
                    <polygon id="Triangle" fill="#D8D8D8" points="987 0 1017 60 957 60"/>
                    <polygon id="Triangle" fill="#D8D8D8" points="1046 0 1076 60 1016 60"/>
                    <polygon id="Triangle" fill="#D8D8D8" points="930 0 960 60 900 60"/>
                    <polygon id="Triangle" fill="#FFEF96" points="990 1 1020 61 960 61"/>
                    <polygon id="Triangle" fill="#DC3E5E" points="1050 1 1080 61 1020 61"/>
                    <polygon id="Triangle" fill="#E993B5" points="930 1 960 61 900 61"/>
                    <polygon id="Triangle" fill="#465C99" points="1110 1 1140 61 1080 61"/>
                    <polygon id="Triangle" fill="#DC3E5E" points="1140 61 1170 121 1110 121"/>
                    <polygon id="Triangle" fill="#E57247" points="150 121 180 181 120 181"/>
                    <polygon id="Triangle" fill="#E993B5" points="60 61 90 121 30 121"/>
                    <polygon id="Triangle" fill="#465C99" points="120 61 150 121 90 121"/>
                    <polygon id="Triangle" fill="#9E913A" points="180 61 210 121 150 121"/>
                    <polygon id="Triangle" fill="#E993B5" points="360 61 390 121 330 121"/>
                    <polygon id="Triangle" fill="#DC3E5E" points="240 61 270 121 210 121"/>
                    <polygon id="Triangle" fill="#D8D8D8" points="725 61 755 121 695 121"/>
                    <polygon id="Triangle" fill="#D8D8D8" points="1075 61 1105 121 1045 121"/>
                    <polygon id="Triangle" fill="#71C9E6" points="780 61 810 121 750 121"/>
                    <polygon id="Triangle" fill="#7BC2A1" points="600 61 630 121 570 121"/>
                    <polygon id="Triangle" fill="#FFE656" points="660 61 690 121 630 121"/>
                    <polygon id="Triangle" fill="#9E913A" points="720 61 750 121 690 121"/>
                    <polygon id="Triangle" fill="#8E355F" points="900 61 930 121 870 121"/>
                    <polygon id="Triangle" fill="#E57247" points="960 61 990 121 930 121"/>
                    <polygon id="Triangle" fill="#937CAC" points="1020 61 1050 121 990 121"/>
                    <polygon id="Triangle" fill="#00AFDE" points="1080 61 1110 121 1050 121"/>
                    <polygon id="Triangle" fill="#7D87B5" points="840 61 870 121 810 121"/>
                    <polygon id="Triangle" fill="#E57247" transform="translate(660.000000, 31.000000) scale(1, -1) translate(-660.000000, -31.000000) " points="660 1 690 61 630 61"/>
                    <polygon id="Triangle" fill="#95CA93" transform="translate(120.000000, 31.000000) scale(1, -1) translate(-120.000000, -31.000000) " points="120 1 150 61 90 61"/>
                    <polygon id="Triangle" fill="#E57247" transform="translate(180.000000, 31.000000) scale(1, -1) translate(-180.000000, -31.000000) " points="180 1 210 61 150 61"/>
                    <polygon id="Triangle" fill="#00A87B" transform="translate(240.000000, 31.000000) scale(1, -1) translate(-240.000000, -31.000000) " points="240 1 270 61 210 61"/>
                    <polygon id="Triangle" fill="#00A87B" transform="translate(30.000000, 91.000000) scale(1, -1) translate(-30.000000, -91.000000) " points="30 61 60 121 0 121"/>
                    <polygon id="Triangle" fill="#9E913A" transform="translate(420.000000, 31.000000) scale(1, -1) translate(-420.000000, -31.000000) " points="420 1 450 61 390 61"/>
                    <polygon id="Triangle" fill="#95CA93" transform="translate(480.000000, 31.000000) scale(1, -1) translate(-480.000000, -31.000000) " points="480 1 510 61 450 61"/>
                    <polygon id="Triangle" fill="#8A253B" transform="translate(540.000000, 31.000000) scale(1, -1) translate(-540.000000, -31.000000) " points="540 1 570 61 510 61"/>
                    <polygon id="Triangle" fill="#00AFDE" transform="translate(600.000000, 31.000000) scale(1, -1) translate(-600.000000, -31.000000) " points="600 1 630 61 570 61"/>
                    <polygon id="Triangle" fill="#E8848A" transform="translate(720.000000, 31.000000) scale(1, -1) translate(-720.000000, -31.000000) " points="720 1 750 61 690 61"/>
                    <polygon id="Triangle" fill="#E57247" transform="translate(360.000000, 31.000000) scale(1, -1) translate(-360.000000, -31.000000) " points="360 1 390 61 330 61"/>
                    <polygon id="Triangle" fill="#FFE656" transform="translate(300.000000, 31.000000) scale(1, -1) translate(-300.000000, -31.000000) " points="300 1 330 61 270 61"/>
                    <polygon id="Triangle" fill="#71C9E6" transform="translate(60.000000, 31.000000) scale(1, -1) translate(-60.000000, -31.000000) " points="60 1 90 61 30 61"/>
                    <polygon id="Triangle" fill="#71C9E6" transform="translate(60.000000, 151.000000) scale(1, -1) translate(-60.000000, -151.000000) " points="60 121 90 181 30 181"/>
                    <polygon id="Triangle" fill="#71C9E6" transform="translate(1080.000000, 31.000000) scale(1, -1) translate(-1080.000000, -31.000000) " points="1080 1 1110 61 1050 61"/>
                    <polygon id="Triangle" fill="#E8848A" transform="translate(1140.000000, 31.000000) scale(1, -1) translate(-1140.000000, -31.000000) " points="1140 1 1170 61 1110 61"/>
                    <polygon id="Triangle" fill="#7BC2A1" transform="translate(1080.000000, 151.000000) scale(1, -1) translate(-1080.000000, -151.000000) " points="1080 121 1110 181 1050 181"/>
                    <polygon id="Triangle" fill="#FFE656" transform="translate(90.000000, 91.000000) scale(1, -1) translate(-90.000000, -91.000000) " points="90 61 120 121 60 121"/>
                    <polygon id="Triangle" fill="#E57247" points="110 121 140 181 80 181"/>
                    <polygon id="Triangle" fill="#FFEF96" points="90 121 120 181 60 181"/>
                    <polygon id="Triangle" fill="#E993B5" points="210 121 240 181 180 181"/>
                    <polygon id="Triangle" fill="#FFE656" points="390 121 420 181 360 181"/>
                    <polygon id="Triangle" fill="#A45334" points="450 121 480 181 420 181"/>
                    <polygon id="Triangle" fill="#E8848A" points="510 121 540 181 480 181"/>
                    <polygon id="Triangle" fill="#E993B5" points="570 121 600 181 540 181"/>
                    <polygon id="Triangle" fill="#E8848A" points="330 121 360 181 300 181"/>
                    <polygon id="Triangle" fill="#FFE656" points="270 121 300 181 240 181"/>
                    <polygon id="Triangle" fill="#FFE656" points="690 121 720 181 660 181"/>
                    <polygon id="Triangle" fill="#EEA37A" points="630 121 660 181 600 181"/>
                    <polygon id="Triangle" fill="#E05694" points="750 121 780 181 720 181"/>
                    <polygon id="Triangle" fill="#00A87B" points="810 121 840 181 780 181"/>
                    <polygon id="Triangle" fill="#D8D8D8" points="1045 121 1075 181 1015 181"/>
                    <polygon id="Triangle" fill="#D8D8D8" points="986 121 1016 181 956 181"/>
                    <polygon id="Triangle" fill="#465C99" points="870 121 900 181 840 181"/>
                    <polygon id="Triangle" fill="#465C99" points="1050 121 1080 181 1020 181"/>
                    <polygon id="Triangle" fill="#FFE656" points="990 121 1020 181 960 181"/>
                    <polygon id="Triangle" fill="#E05694" points="930 121 960 181 900 181"/>
                    <polygon id="Triangle" fill="#DC3E5E" transform="translate(780.000000, 31.000000) scale(1, -1) translate(-780.000000, -31.000000) " points="780 1 810 61 750 61"/>
                    <polygon id="Triangle" fill="#E993B5" transform="translate(840.000000, 31.000000) scale(1, -1) translate(-840.000000, -31.000000) " points="840 1 870 61 810 61"/>
                    <polygon id="Triangle" fill="#FFE656" transform="translate(900.000000, 31.000000) scale(1, -1) translate(-900.000000, -31.000000) " points="900 1 930 61 870 61"/>
                    <polygon id="Triangle" fill="#7BC2A1" transform="translate(960.000000, 31.000000) scale(1, -1) translate(-960.000000, -31.000000) " points="960 1 990 61 930 61"/>
                    <polygon id="Triangle" fill="#69498C" transform="translate(1020.000000, 31.000000) scale(1, -1) translate(-1020.000000, -31.000000) " points="1020 1 1050 61 990 61"/>
                    <polygon id="Triangle" fill="#E8848A" transform="translate(150.000000, 91.000000) scale(1, -1) translate(-150.000000, -91.000000) " points="150 61 180 121 120 121"/>
                    <polygon id="Triangle" fill="#00AFDE" transform="translate(210.000000, 91.000000) scale(1, -1) translate(-210.000000, -91.000000) " points="210 61 240 121 180 121"/>
                    <polygon id="Triangle" fill="#7BC2A1" transform="translate(270.000000, 91.000000) scale(1, -1) translate(-270.000000, -91.000000) " points="270 61 300 121 240 121"/>
                    <polygon id="Triangle" fill="#E8848A" transform="translate(450.000000, 91.000000) scale(1, -1) translate(-450.000000, -91.000000) " points="450 61 480 121 420 121"/>
                    <polygon id="Triangle" fill="#FFFFFF" transform="translate(510.000000, 91.000000) scale(1, -1) translate(-510.000000, -91.000000) " points="510 61 540 121 480 121"/>
                    <polygon id="Triangle" fill="#00A87B" transform="translate(570.000000, 91.000000) scale(1, -1) translate(-570.000000, -91.000000) " points="570 61 600 121 540 121"/>
                    <polygon id="Triangle" fill="#E993B5" transform="translate(630.000000, 91.000000) scale(1, -1) translate(-630.000000, -91.000000) " points="630 61 660 121 600 121"/>
                    <polygon id="Triangle" fill="#00A87B" transform="translate(690.000000, 91.000000) scale(1, -1) translate(-690.000000, -91.000000) " points="690 61 720 121 660 121"/>
                    <polygon id="Triangle" fill="#FFEF96" transform="translate(750.000000, 91.000000) scale(1, -1) translate(-750.000000, -91.000000) " points="750 61 780 121 720 121"/>
                    <polygon id="Triangle" fill="#FFFFFF" transform="translate(390.000000, 91.000000) scale(1, -1) translate(-390.000000, -91.000000) " points="390 61 420 121 360 121"/>
                    <polygon id="Triangle" fill="#432B58" transform="translate(330.000000, 91.000000) scale(1, -1) translate(-330.000000, -91.000000) " points="330 61 360 121 300 121"/>
                    <polygon id="Triangle" fill="#FFE656" transform="translate(810.000000, 91.000000) scale(1, -1) translate(-810.000000, -91.000000) " points="810 61 840 121 780 121"/>
                    <polygon id="Triangle" fill="#FFFFFF" transform="translate(870.000000, 91.000000) scale(1, -1) translate(-870.000000, -91.000000) " points="870 61 900 121 840 121"/>
                    <polygon id="Triangle" fill="#00A87B" transform="translate(930.000000, 91.000000) scale(1, -1) translate(-930.000000, -91.000000) " points="930 61 960 121 900 121"/>
                    <polygon id="Triangle" fill="#EEA37A" transform="translate(1050.000000, 91.000000) scale(1, -1) translate(-1050.000000, -91.000000) " points="1050 61 1080 121 1020 121"/>
                    <polygon id="Triangle" fill="#432B58" transform="translate(990.000000, 91.000000) scale(1, -1) translate(-990.000000, -91.000000) " points="990 61 1020 121 960 121"/>
                    <polygon id="Triangle" fill="#9E913A" transform="translate(1110.000000, 91.000000) scale(1, -1) translate(-1110.000000, -91.000000) " points="1110 61 1140 121 1080 121"/>
                    <polygon id="Triangle" fill="#FFE656" transform="translate(1140.000000, 151.000000) scale(1, -1) translate(-1140.000000, -151.000000) " points="1140 121 1170 181 1110 181"/>
                    <polygon id="Triangle" fill="#71C9E6" transform="translate(360.000000, 151.000000) scale(1, -1) translate(-360.000000, -151.000000) " points="360 121 390 181 330 181"/>
                    <polygon id="Triangle" fill="#00AFDE" transform="translate(120.000000, 151.000000) scale(1, -1) translate(-120.000000, -151.000000) " points="120 121 150 181 90 181"/>
                    <polygon id="Triangle" fill="#87325A" transform="translate(180.000000, 151.000000) scale(1, -1) translate(-180.000000, -151.000000) " points="180 121 210 181 150 181"/>
                    <polygon id="Triangle" fill="#69498C" transform="translate(240.000000, 151.000000) scale(1, -1) translate(-240.000000, -151.000000) " points="240 121 270 181 210 181"/>
                    <polygon id="Triangle" fill="#465C99" transform="translate(300.000000, 151.000000) scale(1, -1) translate(-300.000000, -151.000000) " points="300 121 330 181 270 181"/>
                    <polygon id="Triangle" fill="#D8D8D8" transform="translate(840.000000, 151.000000) scale(1, -1) translate(-840.000000, -151.000000) " points="840 121 870 181 810 181"/>
                    <polygon id="Triangle" fill="#EEA37A" transform="translate(420.000000, 151.000000) scale(1, -1) translate(-420.000000, -151.000000) " points="420 121 450 181 390 181"/>
                    <polygon id="Triangle" fill="#6C1D2E" transform="translate(480.000000, 151.000000) scale(1, -1) translate(-480.000000, -151.000000) " points="480 121 510 181 450 181"/>
                    <polygon id="Triangle" fill="#E57247" transform="translate(540.000000, 151.000000) scale(1, -1) translate(-540.000000, -151.000000) " points="540 121 570 181 510 181"/>
                    <polygon id="Triangle" fill="#F5C6AC" transform="translate(720.000000, 151.000000) scale(1, -1) translate(-720.000000, -151.000000) " points="720 121 750 181 690 181"/>
                    <polygon id="Triangle" fill="#E993B5" transform="translate(780.000000, 151.000000) scale(1, -1) translate(-780.000000, -151.000000) " points="780 121 810 181 750 181"/>
                    <polygon id="Triangle" fill="#E57247" transform="translate(840.000000, 151.000000) scale(1, -1) translate(-840.000000, -151.000000) " points="840 121 870 181 810 181"/>
                    <polygon id="Triangle" fill="#432B58" transform="translate(900.000000, 151.000000) scale(1, -1) translate(-900.000000, -151.000000) " points="900 121 930 181 870 181"/>
                    <polygon id="Triangle" fill="#DC3E5E" transform="translate(960.000000, 151.000000) scale(1, -1) translate(-960.000000, -151.000000) " points="960 121 990 181 930 181"/>
                    <polygon id="Triangle" fill="#7BC2A1" transform="translate(1020.000000, 151.000000) scale(1, -1) translate(-1020.000000, -151.000000) " points="1020 121 1050 181 990 181"/>
                    <polygon id="Triangle" fill="#367441" transform="translate(660.000000, 151.000000) scale(1, -1) translate(-660.000000, -151.000000) " points="660 121 690 181 630 181"/>
                    <polygon id="Triangle" fill="#8A253B" transform="translate(600.000000, 151.000000) scale(1, -1) translate(-600.000000, -151.000000) " points="600 121 630 181 570 181"/>
                </g>
            </g>
        </g>
    </g>
</svg>